<?xml version="1.0" encoding="UTF-8" standalone="no"?>
<!DOCTYPE svg PUBLIC "-//W3C//DTD SVG 1.1//EN"
 "http://www.w3.org/Graphics/SVG/1.1/DTD/svg11.dtd">
<!-- Generated by graphviz version 9.0.0 (20230911.1827)
 -->
<!-- Title: G Pages: 1 -->
<svg width="516pt" height="403pt"
 viewBox="0.00 0.00 516.20 402.95" xmlns="http://www.w3.org/2000/svg" xmlns:xlink="http://www.w3.org/1999/xlink">
<g id="graph0" class="graph" transform="scale(1 1) rotate(0) translate(21.6 381.35)">
<title>G</title>
<polygon fill="#111111" stroke="none" points="-21.6,21.6 -21.6,-381.35 494.6,-381.35 494.6,21.6 -21.6,21.6"/>
<!-- app/api/health/route.ts -->
<g id="node1" class="node">
<title>app/api/health/route.ts</title>
<path fill="none" stroke="#cfffac" d="M186.96,-23.75C186.96,-23.75 53.29,-23.75 53.29,-23.75 49.33,-23.75 45.38,-19.79 45.38,-15.83 45.38,-15.83 45.38,-7.92 45.38,-7.92 45.38,-3.96 49.33,0 53.29,0 53.29,0 186.96,0 186.96,0 190.92,0 194.88,-3.96 194.88,-7.92 194.88,-7.92 194.88,-15.83 194.88,-15.83 194.88,-19.79 190.92,-23.75 186.96,-23.75"/>
<text text-anchor="middle" x="120.12" y="-6.45" font-family="Arial" font-size="14.00" fill="#cfffac">app/api/health/route.ts</text>
</g>
<!-- app/layout.tsx -->
<g id="node2" class="node">
<title>app/layout.tsx</title>
<path fill="none" stroke="#c6c5fe" d="M161.83,-65.75C161.83,-65.75 78.42,-65.75 78.42,-65.75 74.46,-65.75 70.5,-61.79 70.5,-57.83 70.5,-57.83 70.5,-49.92 70.5,-49.92 70.5,-45.96 74.46,-42 78.42,-42 78.42,-42 161.83,-42 161.83,-42 165.79,-42 169.75,-45.96 169.75,-49.92 169.75,-49.92 169.75,-57.83 169.75,-57.83 169.75,-61.79 165.79,-65.75 161.83,-65.75"/>
<text text-anchor="middle" x="120.12" y="-48.45" font-family="Arial" font-size="14.00" fill="#c6c5fe">app/layout.tsx</text>
</g>
<!-- styles/tailwind.css -->
<g id="node3" class="node">
<title>styles/tailwind.css</title>
<path fill="none" stroke="#cfffac" d="M428.33,-65.75C428.33,-65.75 320.92,-65.75 320.92,-65.75 316.96,-65.75 313,-61.79 313,-57.83 313,-57.83 313,-49.92 313,-49.92 313,-45.96 316.96,-42 320.92,-42 320.92,-42 428.33,-42 428.33,-42 432.29,-42 436.25,-45.96 436.25,-49.92 436.25,-49.92 436.25,-57.83 436.25,-57.83 436.25,-61.79 432.29,-65.75 428.33,-65.75"/>
<text text-anchor="middle" x="374.62" y="-48.45" font-family="Arial" font-size="14.00" fill="#cfffac">styles/tailwind.css</text>
</g>
<!-- app/layout.tsx&#45;&gt;styles/tailwind.css -->
<g id="edge1" class="edge">
<title>app/layout.tsx&#45;&gt;styles/tailwind.css</title>
<path fill="none" stroke="#757575" d="M170.11,-53.88C207.42,-53.88 259.35,-53.88 301.42,-53.88"/>
<polygon fill="#757575" stroke="#757575" points="301.21,-57.38 311.21,-53.88 301.21,-50.38 301.21,-57.38"/>
</g>
<!-- app/page.tsx -->
<g id="node4" class="node">
<title>app/page.tsx</title>
<path fill="none" stroke="#c6c5fe" d="M158.83,-107.75C158.83,-107.75 81.42,-107.75 81.42,-107.75 77.46,-107.75 73.5,-103.79 73.5,-99.83 73.5,-99.83 73.5,-91.92 73.5,-91.92 73.5,-87.96 77.46,-84 81.42,-84 81.42,-84 158.83,-84 158.83,-84 162.79,-84 166.75,-87.96 166.75,-91.92 166.75,-91.92 166.75,-99.83 166.75,-99.83 166.75,-103.79 162.79,-107.75 158.83,-107.75"/>
<text text-anchor="middle" x="120.12" y="-90.45" font-family="Arial" font-size="14.00" fill="#c6c5fe">app/page.tsx</text>
</g>
<!-- components/Button/Button.tsx -->
<g id="node5" class="node">
<title>components/Button/Button.tsx</title>
<path fill="none" stroke="#cfffac" d="M465.08,-149.75C465.08,-149.75 284.17,-149.75 284.17,-149.75 280.21,-149.75 276.25,-145.79 276.25,-141.83 276.25,-141.83 276.25,-133.92 276.25,-133.92 276.25,-129.96 280.21,-126 284.17,-126 284.17,-126 465.08,-126 465.08,-126 469.04,-126 473,-129.96 473,-133.92 473,-133.92 473,-141.83 473,-141.83 473,-145.79 469.04,-149.75 465.08,-149.75"/>
<text text-anchor="middle" x="374.62" y="-132.45" font-family="Arial" font-size="14.00" fill="#cfffac">components/Button/Button.tsx</text>
</g>
<!-- app/page.tsx&#45;&gt;components/Button/Button.tsx -->
<g id="edge2" class="edge">
<title>app/page.tsx&#45;&gt;components/Button/Button.tsx</title>
<path fill="none" stroke="#757575" d="M167.14,-103.53C200.95,-109.15 247.86,-116.96 288.42,-123.7"/>
<polygon fill="#757575" stroke="#757575" points="287.75,-127.14 298.19,-125.33 288.9,-120.23 287.75,-127.14"/>
</g>
<!-- lp&#45;items.tsx -->
<g id="node6" class="node">
<title>lp&#45;items.tsx</title>
<path fill="none" stroke="#cfffac" d="M409.21,-107.75C409.21,-107.75 340.04,-107.75 340.04,-107.75 336.08,-107.75 332.12,-103.79 332.12,-99.83 332.12,-99.83 332.12,-91.92 332.12,-91.92 332.12,-87.96 336.08,-84 340.04,-84 340.04,-84 409.21,-84 409.21,-84 413.17,-84 417.12,-87.96 417.12,-91.92 417.12,-91.92 417.12,-99.83 417.12,-99.83 417.12,-103.79 413.17,-107.75 409.21,-107.75"/>
<text text-anchor="middle" x="374.62" y="-90.45" font-family="Arial" font-size="14.00" fill="#cfffac">lp&#45;items.tsx</text>
</g>
<!-- app/page.tsx&#45;&gt;lp&#45;items.tsx -->
<g id="edge3" class="edge">
<title>app/page.tsx&#45;&gt;lp&#45;items.tsx</title>
<path fill="none" stroke="#757575" d="M167.14,-95.88C210.33,-95.88 274.89,-95.88 320.3,-95.88"/>
<polygon fill="#757575" stroke="#757575" points="320.18,-99.38 330.18,-95.88 320.18,-92.38 320.18,-99.38"/>
</g>
<!-- components/Button/Button.stories.tsx -->
<g id="node7" class="node">
<title>components/Button/Button.stories.tsx</title>
<path fill="none" stroke="#c6c5fe" d="M232.33,-149.75C232.33,-149.75 7.92,-149.75 7.92,-149.75 3.96,-149.75 0,-145.79 0,-141.83 0,-141.83 0,-133.92 0,-133.92 0,-129.96 3.96,-126 7.92,-126 7.92,-126 232.33,-126 232.33,-126 236.29,-126 240.25,-129.96 240.25,-133.92 240.25,-133.92 240.25,-141.83 240.25,-141.83 240.25,-145.79 236.29,-149.75 232.33,-149.75"/>
<text text-anchor="middle" x="120.12" y="-132.45" font-family="Arial" font-size="14.00" fill="#c6c5fe">components/Button/Button.stories.tsx</text>
</g>
<!-- components/Button/Button.stories.tsx&#45;&gt;components/Button/Button.tsx -->
<g id="edge4" class="edge">
<title>components/Button/Button.stories.tsx&#45;&gt;components/Button/Button.tsx</title>
<path fill="none" stroke="#757575" d="M240.72,-137.88C248.68,-137.88 256.68,-137.88 264.59,-137.88"/>
<polygon fill="#757575" stroke="#757575" points="264.59,-141.38 274.59,-137.88 264.59,-134.38 264.59,-141.38"/>
</g>
<!-- components/Tooltip/Tooltip.tsx -->
<g id="node8" class="node">
<title>components/Tooltip/Tooltip.tsx</title>
<path fill="none" stroke="#cfffac" d="M210.58,-191.75C210.58,-191.75 29.67,-191.75 29.67,-191.75 25.71,-191.75 21.75,-187.79 21.75,-183.83 21.75,-183.83 21.75,-175.92 21.75,-175.92 21.75,-171.96 25.71,-168 29.67,-168 29.67,-168 210.58,-168 210.58,-168 214.54,-168 218.5,-171.96 218.5,-175.92 218.5,-175.92 218.5,-183.83 218.5,-183.83 218.5,-187.79 214.54,-191.75 210.58,-191.75"/>
<text text-anchor="middle" x="120.12" y="-174.45" font-family="Arial" font-size="14.00" fill="#cfffac">components/Tooltip/Tooltip.tsx</text>
</g>
<!-- jest.config.js -->
<g id="node9" class="node">
<title>jest.config.js</title>
<path fill="none" stroke="#cfffac" d="M157.33,-233.75C157.33,-233.75 82.92,-233.75 82.92,-233.75 78.96,-233.75 75,-229.79 75,-225.83 75,-225.83 75,-217.92 75,-217.92 75,-213.96 78.96,-210 82.92,-210 82.92,-210 157.33,-210 157.33,-210 161.29,-210 165.25,-213.96 165.25,-217.92 165.25,-217.92 165.25,-225.83 165.25,-225.83 165.25,-229.79 161.29,-233.75 157.33,-233.75"/>
<text text-anchor="middle" x="120.12" y="-216.45" font-family="Arial" font-size="14.00" fill="#cfffac">jest.config.js</text>
</g>
<!-- jest.setup.js -->
<g id="node10" class="node">
<title>jest.setup.js</title>
<path fill="none" stroke="#cfffac" d="M155.83,-275.75C155.83,-275.75 84.42,-275.75 84.42,-275.75 80.46,-275.75 76.5,-271.79 76.5,-267.83 76.5,-267.83 76.5,-259.92 76.5,-259.92 76.5,-255.96 80.46,-252 84.42,-252 84.42,-252 155.83,-252 155.83,-252 159.79,-252 163.75,-255.96 163.75,-259.92 163.75,-259.92 163.75,-267.83 163.75,-267.83 163.75,-271.79 159.79,-275.75 155.83,-275.75"/>
<text text-anchor="middle" x="120.12" y="-258.45" font-family="Arial" font-size="14.00" fill="#cfffac">jest.setup.js</text>
</g>
<!-- middleware.ts -->
<g id="node11" class="node">
<title>middleware.ts</title>
<path fill="none" stroke="#cfffac" d="M162.21,-317.75C162.21,-317.75 78.04,-317.75 78.04,-317.75 74.08,-317.75 70.12,-313.79 70.12,-309.83 70.12,-309.83 70.12,-301.92 70.12,-301.92 70.12,-297.96 74.08,-294 78.04,-294 78.04,-294 162.21,-294 162.21,-294 166.17,-294 170.12,-297.96 170.12,-301.92 170.12,-301.92 170.12,-309.83 170.12,-309.83 170.12,-313.79 166.17,-317.75 162.21,-317.75"/>
<text text-anchor="middle" x="120.12" y="-300.45" font-family="Arial" font-size="14.00" fill="#cfffac">middleware.ts</text>
</g>
<!-- report&#45;bundle&#45;size.js -->
<g id="node12" class="node">
<title>report&#45;bundle&#45;size.js</title>
<path fill="none" stroke="#cfffac" d="M181.33,-359.75C181.33,-359.75 58.92,-359.75 58.92,-359.75 54.96,-359.75 51,-355.79 51,-351.83 51,-351.83 51,-343.92 51,-343.92 51,-339.96 54.96,-336 58.92,-336 58.92,-336 181.33,-336 181.33,-336 185.29,-336 189.25,-339.96 189.25,-343.92 189.25,-343.92 189.25,-351.83 189.25,-351.83 189.25,-355.79 185.29,-359.75 181.33,-359.75"/>
<text text-anchor="middle" x="120.12" y="-342.45" font-family="Arial" font-size="14.00" fill="#cfffac">report&#45;bundle&#45;size.js</text>
</g>
</g>
</svg>
